<svg width="12" height="13" viewBox="0 0 12 13" fill="none" xmlns="http://www.w3.org/2000/svg">
<g clip-path="url(#clip0_307_140)">
<path d="M9.23443 12.0965C9.1555 12.0968 9.07848 12.0722 9.01435 12.0261L6.00005 9.84083L2.98576 12.0261C2.92136 12.0728 2.84377 12.0979 2.76422 12.0976C2.68467 12.0973 2.60727 12.0717 2.54321 12.0245C2.47915 11.9774 2.43176 11.911 2.40788 11.8351C2.384 11.7593 2.38487 11.6777 2.41036 11.6024L3.58599 8.12028L0.539115 6.03083C0.473117 5.98562 0.423306 5.92049 0.39696 5.84496C0.370613 5.76942 0.369111 5.68745 0.392674 5.611C0.416236 5.53455 0.463628 5.46764 0.527926 5.42005C0.592223 5.37245 0.670056 5.34666 0.750052 5.34645H4.50896L5.64333 1.85544C5.66777 1.78007 5.71545 1.71438 5.77954 1.66778C5.84362 1.62119 5.92082 1.5961 6.00005 1.5961C6.07928 1.5961 6.15648 1.62119 6.22057 1.66778C6.28465 1.71438 6.33233 1.78007 6.35677 1.85544L7.49115 5.34763H11.2501C11.3301 5.34759 11.4082 5.37319 11.4726 5.4207C11.5371 5.4682 11.5847 5.5351 11.6084 5.61161C11.6321 5.68812 11.6307 5.77021 11.6044 5.84585C11.5781 5.9215 11.5282 5.98674 11.4622 6.032L8.41411 8.12028L9.58904 11.6015C9.60807 11.6578 9.61343 11.7179 9.60466 11.7767C9.59589 11.8356 9.57325 11.8915 9.5386 11.9398C9.50396 11.9882 9.45831 12.0276 9.40542 12.0549C9.35253 12.0821 9.29392 12.0963 9.23443 12.0965Z" fill="#FF859B"/>
</g>
<defs>
<clipPath id="clip0_307_140">
<rect width="12" height="12" fill="white" transform="translate(0 0.846283)"/>
</clipPath>
</defs>
</svg>
